<svg width="70" height="70" viewBox="0 0 70 70" fill="none" xmlns="http://www.w3.org/2000/svg">
<rect x="7.77734" y="17.0139" width="54" height="36" rx="2" fill="#D9F4FF"/>
<path d="M17 14C17 12.8954 17.8954 12 19 12H42L52.9999 23V56C52.9999 57.1046 52.1045 58 50.9999 58H19C17.8954 58 17 57.1046 17 56V14Z" fill="#BAEBFF"/>
<path d="M42 12L52.9999 23V56C52.9999 57.1046 52.1045 58 50.9999 58H19C17.8954 58 17 57.1046 17 56V37.2258L41.8107 12H42Z" fill="url(#paint0_linear_1667_13337)"/>
<path d="M20 58H51C51.5 58 53 57.5 53 55.5V23L19 57.9711C19.5 58 19.7092 58 20 58Z" fill="url(#paint1_linear_1667_13337)"/>
<path d="M42 12L53 23H44C42.8954 23 42 22.1046 42 21V12Z" fill="white"/>
<circle cx="35" cy="35" r="13" fill="white"/>
<path fill-rule="evenodd" clip-rule="evenodd" d="M33.8759 43.4118L26.473 39.9896C25.8423 39.6908 25.8423 39.2291 26.473 38.9575L29.0503 37.7625L33.8484 39.9896C34.4791 40.2884 35.4935 40.2884 36.0967 39.9896L40.8949 37.7625L43.4722 38.9575C44.1028 39.2563 44.1028 39.718 43.4722 39.9896L36.0693 43.4118C35.4935 43.6834 34.4791 43.6834 33.8759 43.4118Z" fill="#FF6F3D"/>
<path fill-rule="evenodd" clip-rule="evenodd" d="M33.8759 39.2018L26.473 35.7796C25.8423 35.4808 25.8423 35.0191 26.473 34.7475L28.9954 33.5796L33.8759 35.8339C34.5065 36.1327 35.5209 36.1327 36.1241 35.8339L41.0046 33.5796L43.527 34.7475C44.1577 35.0463 44.1577 35.508 43.527 35.7796L36.1241 39.2018C35.4935 39.5006 34.4791 39.5006 33.8759 39.2018Z" fill="#95C038"/>
<path fill-rule="evenodd" clip-rule="evenodd" d="M33.8759 35.1006L26.473 31.6784C25.8423 31.3796 25.8423 30.9179 26.473 30.6463L33.8759 27.2241C34.5065 26.9253 35.5209 26.9253 36.1241 27.2241L43.527 30.6463C44.1577 30.9451 44.1577 31.4068 43.527 31.6784L36.1241 35.1006C35.4935 35.3722 34.4791 35.3722 33.8759 35.1006Z" fill="#5DC0E8"/>
<defs>
<linearGradient id="paint0_linear_1667_13337" x1="17" y1="22.1398" x2="50.9089" y2="57.4383" gradientUnits="userSpaceOnUse">
<stop stop-color="#9DE0FF"/>
<stop offset="1" stop-color="#C4EEFF"/>
</linearGradient>
<linearGradient id="paint1_linear_1667_13337" x1="19" y1="30.7411" x2="44.0278" y2="63.3468" gradientUnits="userSpaceOnUse">
<stop stop-color="#80D7FF"/>
<stop offset="1" stop-color="#C4EEFF"/>
</linearGradient>
</defs>
</svg>
